<svg width="22" height="23" viewBox="0 0 22 23" fill="none" xmlns="http://www.w3.org/2000/svg">
<path fill-rule="evenodd" clip-rule="evenodd" d="M11 1.49999C16.5229 1.49999 21 5.97716 21 11.5C21 17.0229 16.5229 21.5 11 21.5C5.47716 21.5 1.00001 17.0229 1.00001 11.5C1.00001 5.97716 5.47716 1.49999 11 1.49999Z" fill="#ffffff"/>
<path opacity="0.5" fill-rule="evenodd" clip-rule="evenodd" d="M13.2318 9.335C12.6979 8.77275 11.9564 8.42348 11.1357 8.42348C10.3151 8.42348 9.57355 8.77275 9.04007 9.335H5.39454V7.78479C5.39454 6.98929 5.77422 6.28629 6.35518 5.85886V8.4003H6.8214V5.59454C6.92704 5.55062 7.03686 5.51448 7.14975 5.4873V8.4003H7.61589V5.42588C7.62377 5.4258 7.63155 5.42558 7.63932 5.42535C7.64906 5.42507 7.65878 5.42479 7.66862 5.42479H7.9379V8.4003H8.40412V5.42479H14.6181C15.8738 5.42479 16.8922 6.48146 16.8922 7.78479H16.8919V9.335H13.2318ZM14.2587 6.41151C14.057 6.41151 13.8937 6.58107 13.8937 6.79007V8.09431C13.8937 8.30331 14.057 8.47287 14.2587 8.47287H15.4878C15.6894 8.47287 15.8527 8.30331 15.8527 8.09431V6.79007C15.8527 6.58107 15.6894 6.41151 15.4878 6.41151H14.2587ZM12.0706 9.335C12.2744 9.43132 12.462 9.55782 12.6283 9.70884C13.1022 10.1406 13.4023 10.773 13.4023 11.4771C13.4023 12.7745 12.3856 13.8296 11.1357 13.8296C9.88613 13.8296 8.86942 12.7745 8.86942 11.4771C8.86942 10.773 9.1695 10.1406 9.64348 9.70884C9.80953 9.55782 9.99728 9.43132 10.2009 9.335C10.4862 9.20052 10.8027 9.12476 11.1357 9.12476C11.469 9.12476 11.7855 9.20052 12.0706 9.335ZM9.46815 11.4771C9.46815 12.4374 10.218 13.2157 11.1432 13.2157C12.0683 13.2157 12.8183 12.4374 12.8183 11.4771C12.8183 10.5171 12.0683 9.73888 11.1432 9.73888C10.218 9.73888 9.46815 10.5171 9.46815 11.4771ZM14.6181 17.4205H7.66862C6.41292 17.4205 5.39454 16.3641 5.39454 15.0605V9.70884H8.73825C8.39578 10.2079 8.19392 10.8178 8.19392 11.4771C8.19392 13.1635 9.51112 14.5309 11.1357 14.5309C12.7605 14.5309 14.0779 13.1635 14.0779 11.4771C14.0779 10.8178 13.8757 10.2079 13.5335 9.70884H16.8922V15.0605C16.8922 16.3641 15.8741 17.4205 14.6181 17.4205Z" fill="black"/>
</svg>
