<svg width="22" height="23" viewBox="0 0 22 23" fill="none" xmlns="http://www.w3.org/2000/svg">
<path fill-rule="evenodd" clip-rule="evenodd" d="M11 1.49999C16.5229 1.49999 21 5.97716 21 11.5C21 17.0229 16.5229 21.5 11 21.5C5.47712 21.5 0.999966 17.0229 0.999966 11.5C0.999966 5.97716 5.47712 1.49999 11 1.49999Z" fill="#ffffff"/>
<path opacity="0.5" fill-rule="evenodd" clip-rule="evenodd" d="M6.79959 8.6122C7.54101 8.6122 8.14208 8.00639 8.14208 7.25956C8.14208 6.51255 7.54101 5.90711 6.79959 5.90711C6.05825 5.90711 5.45719 6.51255 5.45719 7.25956C5.45719 8.00639 6.05825 8.6122 6.79959 8.6122ZM5.67548 16.9023H7.94548V9.57212H5.67548V16.9023ZM12.9573 11.4102C12.0488 11.4102 11.5741 12.0237 11.5741 13.0546V16.9023H9.39677V9.57212H11.5741V10.5594C11.5741 10.5594 12.2289 9.3483 13.784 9.3483C15.3392 9.3483 16.4523 10.2976 16.4523 12.261V16.9023H14.1932V13.0546C14.1932 11.9991 13.7922 11.4102 12.9573 11.4102Z" fill="black"/>
</svg>
